# xmcd
#
# Track frame offsets:
#	150
#	30840
#	51617
#	72864
#	82912
#	126871
#	165711
#	187192
#	215950
#	243990
#
# Disc length: 3666 seconds
# Revision: 0
# Processed by: cddbd v1.5.2PL0 Copyright (c) Steve Scherf et al.
# Submitted via: dBpowerAMP V12.0
#
DISCID=8f0e500a
DTITLE=Wiebrecht Ries - Die Philosophie der Antike CD2
DYEAR=1900
DGENRE=
TTITLE0=Die klassische Zeit - Aristoteles
TTITLE1=Weisheit als vollendete Form von Erkenntinis
TTITLE2=Die praktische Philosophie des Aristoteles
TTITLE3=Die Philosophie im Zeitalter des Hellenismus und der Spätantike
TTITLE4=Epikur
TTITLE5=Die Stoa
TTITLE6=Seneca
TTITLE7=Marc Aurel
TTITLE8=Neoplatonismus
TTITLE9=Ausblick
EXTD=
EXTT0=
EXTT1=
EXTT2=
EXTT3=
EXTT4=
EXTT5=
EXTT6=
EXTT7=
EXTT8=
EXTT9=
PLAYORDER=
